<?xml version="1.0" encoding="UTF-8"?>
<svg id="T" xmlns="http://www.w3.org/2000/svg" viewBox="0 0 177.78 248.65">
  <defs>
    <style>
      .cls-1 {
        fill: #fff;
      }

      .cls-1, .cls-2 {
        fill-rule: evenodd;
        stroke-width: 0px;
      }

      .cls-2 {
        fill: #0a0a08;
      }
    </style>
  </defs>
  <g id="Page-1">
    <path id="Fill-254" class="cls-1" d="M8.5,0h160.78c4.69,0,8.5,3.81,8.5,8.51v231.64c0,4.69-3.81,8.5-8.5,8.5H8.5c-4.7,0-8.5-3.81-8.5-8.5V8.51C0,3.81,3.8,0,8.5,0"/>
    <path id="Fill-256" class="cls-2" d="M47.66,26.07c-7.35,10.5-15.21,16.53-15.34,24.72-.05,2.65,1.39,7.15,5.87,8.02,2.91.55,6.91-1.8,7-6.59-.02-.96,1-.93.99.38-.13,3.77-1.33,8.17-3.33,11.75h9.62c-2-3.58-3.2-7.98-3.34-11.75-.01-1.31,1.02-1.34,1-.38.09,4.79,4.09,7.14,7,6.59,4.48-.87,5.91-5.37,5.87-8.02-.13-8.19-7.99-14.22-15.34-24.72"/>
    <path id="Fill-257" class="cls-2" d="M13.71,39.85c-3.44,4.37-7.11,6.89-7.17,10.3-.02,1.1.65,2.98,2.74,3.34,1.36.23,3.23-.75,3.27-2.74-.01-.4.47-.39.47.15-.07,1.58-.62,3.41-1.56,4.9h4.5c-.94-1.49-1.5-3.32-1.56-4.9-.01-.54.47-.55.46-.15.04,1.99,1.91,2.97,3.27,2.74,2.1-.36,2.76-2.24,2.74-3.34-.06-3.41-3.73-5.93-7.16-10.3"/>
    <path id="Fill-258" class="cls-2" d="M47.66,169.84c-7.35-10.5-15.21-16.53-15.34-24.72-.05-2.65,1.39-7.15,5.87-8.02,2.91-.55,6.91,1.8,7,6.59-.02.96,1,.93.99-.38-.13-3.77-1.33-8.17-3.33-11.75h9.62c-2,3.58-3.2,7.98-3.34,11.75-.01,1.31,1.02,1.34,1,.38.09-4.79,4.09-7.14,7-6.59,4.48.87,5.91,5.37,5.87,8.02-.13,8.19-7.99,14.22-15.34,24.72"/>
    <path id="Fill-259" class="cls-2" d="M164.07,208.8c-3.43-4.37-7.11-6.89-7.17-10.3-.02-1.1.65-2.98,2.74-3.34,1.36-.23,3.23.75,3.27,2.75,0,.39.47.39.47-.16-.06-1.57-.62-3.41-1.56-4.9h4.5c-.94,1.49-1.5,3.33-1.56,4.9,0,.55.47.55.46.16.04-2,1.91-2.98,3.27-2.75,2.1.36,2.77,2.24,2.75,3.34-.06,3.41-3.74,5.93-7.17,10.3"/>
    <path id="Fill-260" class="cls-2" d="M130.12,26.07c-7.35,10.5-15.21,16.53-15.34,24.72-.05,2.65,1.38,7.15,5.87,8.02,2.91.55,6.91-1.8,6.99-6.59,0-.96,1.01-.93,1,.38-.13,3.77-1.33,8.17-3.34,11.75h9.63c-2.01-3.58-3.2-7.98-3.34-11.75,0-1.31,1.01-1.34,1-.38.08,4.79,4.09,7.14,7,6.59,4.48-.87,5.91-5.37,5.87-8.02-.13-8.19-8-14.22-15.34-24.72"/>
    <path id="Fill-261" class="cls-2" d="M47.66,78.82c-7.35,10.49-15.21,16.53-15.34,24.71-.05,2.65,1.39,7.16,5.87,8.02,2.91.56,6.91-1.8,7-6.59-.02-.95,1-.93.99.38-.13,3.78-1.33,8.17-3.33,11.75h9.62c-2-3.58-3.2-7.97-3.34-11.75-.01-1.31,1.02-1.33,1-.38.09,4.79,4.09,7.15,7,6.59,4.48-.86,5.91-5.37,5.87-8.02-.13-8.18-7.99-14.22-15.34-24.71"/>
    <path id="Fill-262" class="cls-2" d="M88.89,60.08c-7.35,10.49-15.21,16.53-15.34,24.71-.05,2.65,1.38,7.16,5.87,8.02,2.91.56,6.91-1.8,6.99-6.59,0-.95,1.01-.93,1,.38-.13,3.78-1.33,8.17-3.33,11.75h9.62c-2.01-3.58-3.2-7.97-3.34-11.75-.01-1.31,1.01-1.33,1-.38.08,4.79,4.09,7.15,7,6.59,4.48-.86,5.91-5.37,5.87-8.02-.13-8.18-7.99-14.22-15.34-24.71"/>
    <path id="Fill-263" class="cls-2" d="M130.12,78.82c-7.35,10.49-15.21,16.53-15.34,24.71-.05,2.65,1.38,7.16,5.87,8.02,2.91.56,6.91-1.8,6.99-6.59,0-.95,1.01-.93,1,.38-.13,3.78-1.33,8.17-3.34,11.75h9.63c-2.01-3.58-3.2-7.97-3.34-11.75,0-1.31,1.01-1.33,1-.38.08,4.79,4.09,7.15,7,6.59,4.48-.86,5.91-5.37,5.87-8.02-.13-8.18-8-14.22-15.34-24.71"/>
    <path id="Fill-264" class="cls-2" d="M47.66,222.58c-7.35-10.49-15.21-16.53-15.34-24.72-.05-2.65,1.39-7.15,5.87-8.01,2.91-.56,6.91,1.8,7,6.59-.02.95,1,.92.99-.38-.13-3.78-1.33-8.18-3.33-11.76h9.62c-2,3.58-3.2,7.98-3.34,11.76-.01,1.3,1.02,1.33,1,.38.09-4.79,4.09-7.15,7-6.59,4.48.86,5.91,5.36,5.87,8.01-.13,8.19-7.99,14.23-15.34,24.72"/>
    <path id="Fill-265" class="cls-2" d="M130.12,222.58c-7.35-10.49-15.21-16.53-15.34-24.72-.05-2.65,1.38-7.15,5.87-8.01,2.91-.56,6.91,1.8,6.99,6.59,0,.95,1.01.92,1-.38-.13-3.78-1.33-8.18-3.34-11.76h9.63c-2.01,3.58-3.2,7.98-3.34,11.76,0,1.3,1.01,1.33,1,.38.08-4.79,4.09-7.15,7-6.59,4.48.86,5.91,5.36,5.87,8.01-.13,8.19-8,14.23-15.34,24.72"/>
    <path id="Fill-266" class="cls-2" d="M88.89,188.58c-7.35-10.49-15.21-16.53-15.34-24.72-.05-2.65,1.38-7.15,5.87-8.02,2.91-.55,6.91,1.8,6.99,6.59,0,.96,1.01.93,1-.38-.13-3.77-1.33-8.17-3.33-11.75h9.62c-2.01,3.58-3.2,7.98-3.34,11.75-.01,1.31,1.01,1.34,1,.38.08-4.79,4.09-7.14,7-6.59,4.48.87,5.91,5.37,5.87,8.02-.13,8.19-7.99,14.23-15.34,24.72"/>
    <path id="Fill-267" class="cls-2" d="M130.12,169.84c-7.35-10.5-15.21-16.53-15.34-24.72-.05-2.65,1.38-7.15,5.87-8.02,2.91-.55,6.91,1.8,6.99,6.59,0,.96,1.01.93,1-.38-.13-3.77-1.33-8.17-3.34-11.75h9.63c-2.01,3.58-3.2,7.98-3.34,11.75,0,1.31,1.01,1.34,1,.38.08-4.79,4.09-7.14,7-6.59,4.48.87,5.91,5.37,5.87,8.02-.13,8.19-8,14.22-15.34,24.72"/>
    <polygon id="Fill-268" class="cls-2" points="5.73 37.35 8.27 37.35 8.27 11.04 5.73 11.04 5.73 37.35"/>
    <path id="Fill-269" class="cls-2" d="M16.57,13.52c1.45,0,2.61,1.12,2.61,2.51v16.47c0,1.39-1.16,2.51-2.61,2.51s-2.62-1.12-2.62-2.51v-16.47c0-1.39,1.17-2.51,2.62-2.51h0ZM15.83,11.04c-2.46,0-4.43,2.24-4.43,5.02v16.26c0,2.79,1.98,5.03,4.43,5.03h1.43c2.45,0,4.42-2.24,4.42-5.03v-16.26c0-2.78-1.97-5.02-4.42-5.02h-1.43Z"/>
    <polygon id="Fill-270" class="cls-2" points="169.5 237.62 172.05 237.62 172.05 211.3 169.5 211.3 169.5 237.62"/>
    <path id="Fill-271" class="cls-2" d="M161.21,235.13c-1.45,0-2.61-1.11-2.61-2.5v-16.48c0-1.39,1.16-2.51,2.61-2.51s2.61,1.12,2.61,2.51v16.48c0,1.39-1.16,2.5-2.61,2.5h0ZM161.95,237.62c2.45,0,4.42-2.25,4.42-5.03v-16.26c0-2.79-1.97-5.03-4.42-5.03h-1.43c-2.46,0-4.43,2.24-4.43,5.03v16.26c0,2.78,1.98,5.03,4.43,5.03h1.43Z"/>
  </g>
</svg>